<svg width="21" height="20" viewBox="0 0 21 20" fill="none" xmlns="http://www.w3.org/2000/svg">
<path d="M17.818 11.5H13.943C13.4293 11.4995 12.9364 11.7027 12.5724 12.065C12.2083 12.4274 12.0029 12.9193 12.001 13.433V17.308C12.0007 17.5631 12.0508 17.8158 12.1483 18.0515C12.2458 18.2872 12.3888 18.5014 12.5692 18.6818C12.7496 18.8622 12.9638 19.0052 13.1995 19.1027C13.4353 19.2002 13.6879 19.2503 13.943 19.25H17.818C18.3315 19.2479 18.8232 19.0423 19.1853 18.6783C19.5475 18.3142 19.7505 17.8215 19.75 17.308V13.433C19.7503 13.1792 19.7005 12.9279 19.6035 12.6933C19.5065 12.4588 19.3642 12.2457 19.1847 12.0663C19.0053 11.8868 18.7922 11.7445 18.5577 11.6475C18.3231 11.5505 18.0718 11.5007 17.818 11.501M7.057 11.5H3.182C2.66859 11.5029 2.17721 11.7089 1.8152 12.073C1.45319 12.437 1.24999 12.9296 1.25 13.443V17.318C1.24974 17.5718 1.29953 17.8231 1.39653 18.0577C1.49353 18.2922 1.63583 18.5053 1.81528 18.6847C1.99474 18.8642 2.20783 19.0065 2.44235 19.1035C2.67687 19.2005 2.92821 19.2503 3.182 19.25H7.057C7.57048 19.2505 8.06324 19.0475 8.42726 18.6853C8.79128 18.3232 8.99688 17.8315 8.999 17.318V13.443C8.99926 13.1879 8.94921 12.9353 8.85171 12.6995C8.75421 12.4638 8.61117 12.2496 8.43079 12.0692C8.25041 11.8888 8.03622 11.7458 7.80048 11.6483C7.56475 11.5508 7.3121 11.5007 7.057 11.501M7.057 0.750001H3.182C2.92821 0.749738 2.67687 0.799531 2.44235 0.89653C2.20783 0.993529 1.99474 1.13583 1.81528 1.31528C1.63583 1.49474 1.49353 1.70783 1.39653 1.94235C1.29953 2.17687 1.24974 2.42821 1.25 2.682V6.557C1.24947 7.07048 1.45253 7.56324 1.81468 7.92726C2.17683 8.29128 2.66852 8.49688 3.182 8.499H7.057C7.3121 8.49926 7.56475 8.44921 7.80048 8.35171C8.03622 8.25421 8.25041 8.11117 8.43079 7.93079C8.61117 7.75041 8.75421 7.53622 8.85171 7.30048C8.94921 7.06475 8.99926 6.8121 8.999 6.557V2.682C8.99688 2.16852 8.79128 1.67683 8.42726 1.31468C8.06324 0.952527 7.57048 0.749467 7.057 0.750001ZM17.818 0.750001H13.943C13.4295 0.749467 12.9368 0.952527 12.5727 1.31468C12.2087 1.67683 12.0031 2.16852 12.001 2.682V6.557C12.0013 7.07197 12.206 7.56577 12.5701 7.92991C12.9342 8.29405 13.428 8.49874 13.943 8.499H17.818C18.3315 8.49688 18.8232 8.29128 19.1853 7.92726C19.5475 7.56324 19.7505 7.07048 19.75 6.557V2.682C19.7503 2.42821 19.7005 2.17687 19.6035 1.94235C19.5065 1.70783 19.3642 1.49474 19.1847 1.31528C19.0053 1.13583 18.7922 0.993529 18.5577 0.89653C18.3231 0.799531 18.0718 0.749738 17.818 0.750001Z" stroke="#FAFAFA" stroke-width="1.5" stroke-linecap="round" stroke-linejoin="round"/>
</svg>
