<svg width="17" height="22" viewBox="0 0 17 22" fill="none" xmlns="http://www.w3.org/2000/svg">
<path d="M2.577 17C2.577 19.21 3.726 21 5.807 21C7.888 21 9.577 19.5 10.115 17C10.374 15.801 10.903 15.077 11.731 14.5C13.885 13 15.5 10.692 15.5 8C15.5 7.08075 15.3189 6.1705 14.9672 5.32122C14.6154 4.47194 14.0998 3.70026 13.4497 3.05025C12.7997 2.40024 12.0281 1.88463 11.1788 1.53284C10.3295 1.18106 9.41925 1 8.5 1C7.58075 1 6.67049 1.18106 5.82122 1.53284C4.97194 1.88463 4.20026 2.40024 3.55025 3.05025C2.90024 3.70026 2.38463 4.47194 2.03284 5.32122C1.68106 6.1705 1.5 7.08075 1.5 8" stroke="#FAFAFA" stroke-width="1.5" stroke-linecap="round" stroke-linejoin="round"/>
</svg>
