<svg width="17" height="15" viewBox="0 0 17 15" fill="none" xmlns="http://www.w3.org/2000/svg">
<path d="M14.25 11.4219C14.5938 11.5938 14.9036 11.8047 15.1797 12.0547C15.4557 12.3047 15.6901 12.5833 15.8828 12.8906C16.0755 13.1979 16.2266 13.5312 16.3359 13.8906C16.4453 14.25 16.5 14.6198 16.5 15H15.5C15.5 14.5885 15.4219 14.2005 15.2656 13.8359C15.1094 13.4714 14.8958 13.1536 14.625 12.8828C14.3542 12.612 14.0339 12.3958 13.6641 12.2344C13.2943 12.0729 12.9062 11.9948 12.5 12C12.0833 12 11.6953 12.0781 11.3359 12.2344C10.9766 12.3906 10.6589 12.6042 10.3828 12.875C10.1068 13.1458 9.89062 13.4661 9.73438 13.8359C9.57812 14.2057 9.5 14.5938 9.5 15H8.5C8.5 14.6198 8.55208 14.25 8.65625 13.8906C8.76042 13.5312 8.91146 13.1979 9.10938 12.8906C9.30729 12.5833 9.54427 12.3047 9.82031 12.0547C10.0964 11.8047 10.4062 11.5938 10.75 11.4219C10.3594 11.1406 10.0547 10.7891 9.83594 10.3672C9.61719 9.94531 9.50521 9.48958 9.5 9C9.5 8.58854 9.57812 8.20052 9.73438 7.83594C9.89062 7.47135 10.1042 7.15365 10.375 6.88281C10.6458 6.61198 10.9635 6.39583 11.3281 6.23438C11.6927 6.07292 12.0833 5.99479 12.5 6C12.9115 6 13.2995 6.07812 13.6641 6.23438C14.0286 6.39062 14.3464 6.60417 14.6172 6.875C14.888 7.14583 15.1042 7.46615 15.2656 7.83594C15.4271 8.20573 15.5052 8.59375 15.5 9C15.5 9.48958 15.3906 9.94531 15.1719 10.3672C14.9531 10.7891 14.6458 11.1406 14.25 11.4219ZM12.5 11C12.776 11 13.0339 10.9479 13.2734 10.8438C13.513 10.7396 13.7266 10.5964 13.9141 10.4141C14.1016 10.2318 14.2448 10.0208 14.3438 9.78125C14.4427 9.54167 14.4948 9.28125 14.5 9C14.5 8.72396 14.4479 8.46615 14.3438 8.22656C14.2396 7.98698 14.0964 7.77344 13.9141 7.58594C13.7318 7.39844 13.5208 7.25521 13.2812 7.15625C13.0417 7.05729 12.7812 7.00521 12.5 7C12.224 7 11.9661 7.05208 11.7266 7.15625C11.487 7.26042 11.2734 7.40365 11.0859 7.58594C10.8984 7.76823 10.7552 7.97917 10.6562 8.21875C10.5573 8.45833 10.5052 8.71875 10.5 9C10.5 9.27604 10.5521 9.53385 10.6562 9.77344C10.7604 10.013 10.9036 10.2266 11.0859 10.4141C11.2682 10.6016 11.4792 10.7448 11.7188 10.8438C11.9583 10.9427 12.2188 10.9948 12.5 11ZM8.5 11.625C8.33333 11.8177 8.18229 12.0182 8.04688 12.2266C7.91146 12.4349 7.79167 12.6589 7.6875 12.8984C7.41146 12.612 7.07812 12.3906 6.6875 12.2344C6.29688 12.0781 5.90104 12 5.5 12H2.5V2H1.5V13H7.64844C7.57552 13.1615 7.51562 13.3255 7.46875 13.4922C7.42188 13.6589 7.38281 13.8281 7.35156 14H0.5V1H2.5V0H5.5C5.95833 0 6.39844 0.0703125 6.82031 0.210938C7.24219 0.351562 7.63542 0.5625 8 0.84375C8.35938 0.5625 8.75 0.351562 9.17188 0.210938C9.59375 0.0703125 10.0365 0 10.5 0H13.5V1H15.5V6C15.1979 5.70312 14.8646 5.45573 14.5 5.25781V2H13.5V4.88281C13.3333 4.83594 13.1667 4.80208 13 4.78125C12.8333 4.76042 12.6667 4.75 12.5 4.75V1H10.5C10.1354 1 9.78125 1.0625 9.4375 1.1875C9.09375 1.3125 8.78125 1.4974 8.5 1.74219V11.625ZM7.5 11.5234V1.74219C7.21875 1.5026 6.90625 1.32031 6.5625 1.19531C6.21875 1.07031 5.86458 1.00521 5.5 1H3.5V11H5.5C5.84896 11 6.19271 11.0443 6.53125 11.1328C6.86979 11.2214 7.19271 11.3516 7.5 11.5234Z" fill="#FAFAFA"/>
</svg>
