<svg width="17" height="14" viewBox="0 0 17 14" fill="none" xmlns="http://www.w3.org/2000/svg">
<path d="M3.953 1.167C3.88624 1.09888 3.80671 1.04459 3.71896 1.00722C3.63121 0.969849 3.53695 0.950136 3.44158 0.949207C3.3462 0.948279 3.25158 0.966152 3.16311 1.00181C3.07465 1.03746 2.99408 1.0902 2.926 1.157C2.15618 1.92275 1.54549 2.83326 1.12912 3.83608C0.712752 4.83889 0.498941 5.91419 0.500004 7C0.498874 8.1275 0.729431 9.24321 1.17737 10.2779C1.62531 11.3126 2.28108 12.2442 3.104 13.015C3.24252 13.143 3.4255 13.2121 3.61408 13.2074C3.80265 13.2027 3.98199 13.1247 4.114 12.99C4.43 12.674 4.391 12.171 4.087 11.88C3.4265 11.2505 2.90089 10.4933 2.54212 9.65443C2.18335 8.81551 1.99891 7.91241 2 7C2 5.154 2.741 3.48 3.943 2.262C4.233 1.967 4.263 1.477 3.953 1.167ZM5.714 2.93C5.5823 2.79449 5.40225 2.71671 5.21331 2.71371C5.02437 2.71071 4.84194 2.78274 4.706 2.914C4.16482 3.44786 3.73527 4.08406 3.44238 4.78556C3.14949 5.48705 2.99911 6.23982 3 7C3 8.692 3.73 10.213 4.893 11.265C5.03038 11.3861 5.20909 11.4498 5.39211 11.4427C5.57512 11.4356 5.74839 11.3584 5.876 11.227C6.204 10.899 6.143 10.383 5.835 10.093C5.41295 9.69602 5.07675 9.21675 4.84714 8.68478C4.61753 8.15281 4.49938 7.57941 4.5 7C4.5 5.85 4.957 4.806 5.7 4.04C5.986 3.746 6.033 3.248 5.714 2.93ZM11.286 2.929C11.4177 2.79349 11.5978 2.71571 11.7867 2.71271C11.9756 2.70971 12.1581 2.78174 12.294 2.913C12.8353 3.44697 13.2649 4.08334 13.5578 4.78502C13.8507 5.4867 14.001 6.23965 14 7C14 8.692 13.27 10.213 12.107 11.265C11.9696 11.3861 11.7909 11.4498 11.6079 11.4427C11.4249 11.4356 11.2516 11.3584 11.124 11.227C10.796 10.899 10.857 10.383 11.165 10.093C11.5871 9.69602 11.9233 9.21675 12.1529 8.68478C12.3825 8.15281 12.5006 7.57941 12.5 7C12.5 5.85 12.043 4.806 11.3 4.04C11.014 3.746 10.967 3.247 11.286 2.929ZM13.047 1.167C13.1138 1.09888 13.1933 1.04459 13.281 1.00722C13.3688 0.969849 13.4631 0.950136 13.5584 0.949207C13.6538 0.948279 13.7484 0.966152 13.8369 1.00181C13.9254 1.03746 14.0059 1.0902 14.074 1.157C14.8438 1.92275 15.4545 2.83326 15.8709 3.83608C16.2873 4.83889 16.5011 5.91419 16.5 7C16.5011 8.1275 16.2706 9.24321 15.8226 10.2779C15.3747 11.3126 14.7189 12.2442 13.896 13.015C13.7575 13.143 13.5745 13.2121 13.3859 13.2074C13.1974 13.2027 13.018 13.1247 12.886 12.99C12.57 12.674 12.609 12.171 12.914 11.88C13.5743 11.2505 14.0997 10.4932 14.4583 9.65431C14.8169 8.8154 15.0012 7.91234 15 7C15 5.154 14.259 3.48 13.057 2.262C12.767 1.967 12.737 1.477 13.047 1.167ZM8.5 5.5C8.10218 5.5 7.72065 5.65804 7.43934 5.93934C7.15804 6.22065 7 6.60218 7 7C7 7.39783 7.15804 7.77936 7.43934 8.06066C7.72065 8.34197 8.10218 8.5 8.5 8.5C8.89783 8.5 9.27936 8.34197 9.56066 8.06066C9.84197 7.77936 10 7.39783 10 7C10 6.60218 9.84197 6.22065 9.56066 5.93934C9.27936 5.65804 8.89783 5.5 8.5 5.5Z" fill="#FAFAFA"/>
</svg>
