<svg width="21" height="21" viewBox="0 0 21 21" fill="none" xmlns="http://www.w3.org/2000/svg">
<path d="M8.8 18C8.9 18.3333 9.03767 18.6793 9.213 19.038C9.38833 19.3967 9.56733 19.7173 9.75 20H2.5C1.95 20 1.47933 19.8043 1.088 19.413C0.696667 19.0217 0.500667 18.5507 0.5 18V2C0.5 1.45 0.696 0.979333 1.088 0.588C1.48 0.196667 1.95067 0.000666667 2.5 0H14.5C15.05 0 15.521 0.196 15.913 0.588C16.305 0.98 16.5007 1.45067 16.5 2V9.1C16.2 9.06667 15.8667 9.05 15.5 9.05C15.1333 9.05 14.8 9.06667 14.5 9.1V2H9.5V9L7 7.5L4.5 9V2H2.5V18H8.8ZM15.5 21C14.1167 21 12.9377 20.5123 11.963 19.537C10.9883 18.5617 10.5007 17.3827 10.5 16C10.4993 14.6173 10.987 13.4383 11.963 12.463C12.939 11.4877 14.118 11 15.5 11C16.882 11 18.0613 11.4877 19.038 12.463C20.0147 13.4383 20.502 14.6173 20.5 16C20.498 17.3827 20.0103 18.562 19.037 19.538C18.0637 20.514 16.8847 21.0013 15.5 21ZM14.25 18.5L18.25 16L14.25 13.5V18.5ZM8.8 2H2.5H14.5H8.5H8.8Z" fill="#FAFAFA"/>
</svg>
